<svg width="129" height="24" viewBox="0 0 129 24" fill="none" xmlns="http://www.w3.org/2000/svg">
<path d="M11.9639 17.4043C11.9639 16.5742 11.6709 15.9395 11.085 15.5C10.499 15.0508 9.44434 14.582 7.9209 14.0938C6.39746 13.5957 5.19141 13.1074 4.30273 12.6289C1.88086 11.3203 0.669922 9.55762 0.669922 7.34082C0.669922 6.18848 0.992188 5.16309 1.63672 4.26465C2.29102 3.35645 3.22363 2.64844 4.43457 2.14062C5.65527 1.63281 7.02246 1.37891 8.53613 1.37891C10.0596 1.37891 11.417 1.65723 12.6084 2.21387C13.7998 2.76074 14.7227 3.53711 15.377 4.54297C16.041 5.54883 16.373 6.69141 16.373 7.9707H11.9785C11.9785 6.99414 11.6709 6.2373 11.0557 5.7002C10.4404 5.15332 9.57617 4.87988 8.46289 4.87988C7.38867 4.87988 6.55371 5.10938 5.95801 5.56836C5.3623 6.01758 5.06445 6.61328 5.06445 7.35547C5.06445 8.04883 5.41113 8.62988 6.10449 9.09863C6.80762 9.56738 7.83789 10.0068 9.19531 10.417C11.6953 11.1689 13.5166 12.1016 14.6592 13.2148C15.8018 14.3281 16.373 15.7148 16.373 17.375C16.373 19.2207 15.6748 20.6709 14.2783 21.7256C12.8818 22.7705 11.002 23.293 8.63867 23.293C6.99805 23.293 5.50391 22.9951 4.15625 22.3994C2.80859 21.7939 1.77832 20.9688 1.06543 19.9238C0.362305 18.8789 0.0107422 17.668 0.0107422 16.291H4.41992C4.41992 18.6445 5.82617 19.8213 8.63867 19.8213C9.68359 19.8213 10.499 19.6113 11.085 19.1914C11.6709 18.7617 11.9639 18.166 11.9639 17.4043ZM24.1514 3.25391V7.15039H26.8613V10.2559H24.1514V18.166C24.1514 18.752 24.2637 19.1719 24.4883 19.4258C24.7129 19.6797 25.1426 19.8066 25.7773 19.8066C26.2461 19.8066 26.6611 19.7725 27.0225 19.7041V22.9121C26.1924 23.166 25.3379 23.293 24.459 23.293C21.4902 23.293 19.9766 21.7939 19.918 18.7959V10.2559H17.6035V7.15039H19.918V3.25391H24.1514ZM38.7119 21.3887C37.667 22.6582 36.2217 23.293 34.376 23.293C32.6768 23.293 31.3779 22.8047 30.4795 21.8281C29.5908 20.8516 29.1367 19.4209 29.1172 17.5361V7.15039H33.3506V17.3896C33.3506 19.04 34.1025 19.8652 35.6064 19.8652C37.042 19.8652 38.0283 19.3672 38.5654 18.3711V7.15039H42.8135V23H38.8291L38.7119 21.3887ZM45.3477 14.958C45.3477 12.4873 45.8994 10.5195 47.0029 9.05469C48.1162 7.58984 49.6348 6.85742 51.5586 6.85742C53.1016 6.85742 54.376 7.43359 55.3818 8.58594V0.5H59.6299V23H55.8066L55.6016 21.3154C54.5469 22.6338 53.1895 23.293 51.5293 23.293C49.6641 23.293 48.165 22.5605 47.0322 21.0957C45.9092 19.6211 45.3477 17.5752 45.3477 14.958ZM49.5811 15.2656C49.5811 16.75 49.8398 17.8877 50.3574 18.6787C50.875 19.4697 51.627 19.8652 52.6133 19.8652C53.9219 19.8652 54.8447 19.3135 55.3818 18.21V11.9551C54.8545 10.8516 53.9414 10.2998 52.6426 10.2998C50.6016 10.2998 49.5811 11.9551 49.5811 15.2656ZM67.3789 23H63.1309V7.15039H67.3789V23ZM62.8818 3.04883C62.8818 2.41406 63.0918 1.8916 63.5117 1.48145C63.9414 1.07129 64.5225 0.866211 65.2549 0.866211C65.9775 0.866211 66.5537 1.07129 66.9834 1.48145C67.4131 1.8916 67.6279 2.41406 67.6279 3.04883C67.6279 3.69336 67.4082 4.2207 66.9688 4.63086C66.5391 5.04102 65.9678 5.24609 65.2549 5.24609C64.542 5.24609 63.9658 5.04102 63.5264 4.63086C63.0967 4.2207 62.8818 3.69336 62.8818 3.04883ZM70.2207 14.9287C70.2207 13.3564 70.5234 11.9551 71.1289 10.7246C71.7344 9.49414 72.6035 8.54199 73.7363 7.86816C74.8789 7.19434 76.2021 6.85742 77.7061 6.85742C79.8447 6.85742 81.5879 7.51172 82.9355 8.82031C84.293 10.1289 85.0498 11.9062 85.2061 14.1523L85.2354 15.2363C85.2354 17.668 84.5566 19.6211 83.1992 21.0957C81.8418 22.5605 80.0205 23.293 77.7354 23.293C75.4502 23.293 73.624 22.5605 72.2568 21.0957C70.8994 19.6309 70.2207 17.6387 70.2207 15.1191V14.9287ZM74.4541 15.2363C74.4541 16.7402 74.7373 17.8926 75.3037 18.6934C75.8701 19.4844 76.6807 19.8799 77.7354 19.8799C78.7607 19.8799 79.5615 19.4893 80.1377 18.708C80.7139 17.917 81.002 16.6572 81.002 14.9287C81.002 13.4541 80.7139 12.3115 80.1377 11.501C79.5615 10.6904 78.751 10.2852 77.7061 10.2852C76.6709 10.2852 75.8701 10.6904 75.3037 11.501C74.7373 12.3018 74.4541 13.5469 74.4541 15.2363ZM99.1807 17.4043C99.1807 16.5742 98.8877 15.9395 98.3018 15.5C97.7158 15.0508 96.6611 14.582 95.1377 14.0938C93.6143 13.5957 92.4082 13.1074 91.5195 12.6289C89.0977 11.3203 87.8867 9.55762 87.8867 7.34082C87.8867 6.18848 88.209 5.16309 88.8535 4.26465C89.5078 3.35645 90.4404 2.64844 91.6514 2.14062C92.8721 1.63281 94.2393 1.37891 95.7529 1.37891C97.2764 1.37891 98.6338 1.65723 99.8252 2.21387C101.017 2.76074 101.939 3.53711 102.594 4.54297C103.258 5.54883 103.59 6.69141 103.59 7.9707H99.1953C99.1953 6.99414 98.8877 6.2373 98.2725 5.7002C97.6572 5.15332 96.793 4.87988 95.6797 4.87988C94.6055 4.87988 93.7705 5.10938 93.1748 5.56836C92.5791 6.01758 92.2812 6.61328 92.2812 7.35547C92.2812 8.04883 92.6279 8.62988 93.3213 9.09863C94.0244 9.56738 95.0547 10.0068 96.4121 10.417C98.9121 11.1689 100.733 12.1016 101.876 13.2148C103.019 14.3281 103.59 15.7148 103.59 17.375C103.59 19.2207 102.892 20.6709 101.495 21.7256C100.099 22.7705 98.2188 23.293 95.8555 23.293C94.2148 23.293 92.7207 22.9951 91.373 22.3994C90.0254 21.7939 88.9951 20.9688 88.2822 19.9238C87.5791 18.8789 87.2275 17.668 87.2275 16.291H91.6367C91.6367 18.6445 93.043 19.8213 95.8555 19.8213C96.9004 19.8213 97.7158 19.6113 98.3018 19.1914C98.8877 18.7617 99.1807 18.166 99.1807 17.4043ZM110.768 23H106.52V7.15039H110.768V23ZM106.271 3.04883C106.271 2.41406 106.48 1.8916 106.9 1.48145C107.33 1.07129 107.911 0.866211 108.644 0.866211C109.366 0.866211 109.942 1.07129 110.372 1.48145C110.802 1.8916 111.017 2.41406 111.017 3.04883C111.017 3.69336 110.797 4.2207 110.357 4.63086C109.928 5.04102 109.356 5.24609 108.644 5.24609C107.931 5.24609 107.354 5.04102 106.915 4.63086C106.485 4.2207 106.271 3.69336 106.271 3.04883ZM128.551 15.2217C128.551 17.7607 128.009 19.7432 126.925 21.1689C125.841 22.585 124.327 23.293 122.384 23.293C120.665 23.293 119.293 22.6338 118.268 21.3154L118.077 23H114.269V0.5H118.502V8.57129C119.479 7.42871 120.763 6.85742 122.354 6.85742C124.288 6.85742 125.802 7.57031 126.896 8.99609C127.999 10.4121 128.551 12.4092 128.551 14.9873V15.2217ZM124.317 14.9141C124.317 13.3125 124.063 12.1455 123.556 11.4131C123.048 10.6709 122.291 10.2998 121.285 10.2998C119.938 10.2998 119.01 10.8516 118.502 11.9551V18.21C119.02 19.3232 119.957 19.8799 121.314 19.8799C122.682 19.8799 123.58 19.2061 124.01 17.8584C124.215 17.2139 124.317 16.2324 124.317 14.9141Z" fill="white"/>
</svg>
