<svg width="20" height="19" viewBox="0 0 20 19" fill="none" xmlns="http://www.w3.org/2000/svg">
<path d="M19.1966 17.7549L13.5944 12.3084C14.758 11.0523 15.4731 9.39622 15.4731 7.57672C15.4731 3.6698 12.2037 0.491211 8.18506 0.491211C4.16643 0.491211 0.896973 3.66981 0.896973 7.57675C0.896973 11.4837 4.16643 14.6623 8.18506 14.6623C10.0566 14.6623 11.76 13.967 13.052 12.8357L18.6542 18.2822C18.7291 18.3551 18.8272 18.3915 18.9254 18.3915C19.0235 18.3915 19.1217 18.3551 19.1966 18.2822C19.3464 18.1366 19.3464 17.9006 19.1966 17.7549ZM8.18506 13.9164C4.58972 13.9164 1.66416 11.0725 1.66416 7.57675C1.66416 4.08099 4.58972 1.23704 8.18506 1.23704C11.7804 1.23704 14.7059 4.08095 14.7059 7.57675C14.7059 11.0726 11.7804 13.9164 8.18506 13.9164Z" fill="black"/>
</svg>
